<?xml version="1.0" encoding="UTF-8"?>
<svg width="20px" height="20px" viewBox="0 0 20 20" version="1.1" xmlns="http://www.w3.org/2000/svg" xmlns:xlink="http://www.w3.org/1999/xlink">
    <!-- Generator: Sketch 55.1 (78136) - https://sketchapp.com -->
    <title>Sign_shuaxin_icon</title>
    <desc>Created with Sketch.</desc>
    <g id="页面1" stroke="none" stroke-width="1" fill="none" fill-rule="evenodd">
        <g id="组件" transform="translate(-482.000000, -185.000000)" fill="#212832">
            <g id="编组-5" transform="translate(482.000000, 185.000000)">
                <g id="Icon/Reload">
                    <path d="M16.2007,10 C15.8307,10 15.5057,10.269 15.4637,10.637 C15.1467,13.371 12.8177,15.5 9.9997,15.5 C6.5787,15.5 3.8777,12.36 4.6257,8.811 C5.0607,6.743 6.7297,5.07 8.7957,4.629 C10.8467,4.191 12.7507,4.912 14.0037,6.25 L12.4997,6.25 C12.0857,6.25 11.7497,6.586 11.7497,7 C11.7497,7.414 12.0857,7.75 12.4997,7.75 L15.4997,7.75 C15.9137,7.75 16.2497,7.414 16.2497,7 L16.2497,4 C16.2497,3.586 15.9137,3.25 15.4997,3.25 C15.0857,3.25 14.7497,3.586 14.7497,4 L14.7497,4.897 C13.5377,3.758 11.9317,3.038 10.1457,3.001 C6.3437,2.923 3.0707,6.067 3.0007,9.869 C2.9297,13.795 6.0907,17 9.9997,17 C13.5777,17 16.5287,14.316 16.9487,10.852 C17.0037,10.401 16.6547,10 16.2007,10" id="Fill-1"></path>
                </g>
            </g>
        </g>
    </g>
</svg>