<?xml version="1.0" encoding="UTF-8"?>
<svg width="20px" height="20px" viewBox="0 0 20 20" version="1.1" xmlns="http://www.w3.org/2000/svg" xmlns:xlink="http://www.w3.org/1999/xlink">
    <!-- Generator: Sketch 55.1 (78136) - https://sketchapp.com -->
    <title>yanzheng_close_icon</title>
    <desc>Created with Sketch.</desc>
    <g id="页面1" stroke="none" stroke-width="1" fill="none" fill-rule="evenodd">
        <g id="组件" transform="translate(-522.000000, -185.000000)" fill="#212832">
            <g id="编组-6" transform="translate(522.000000, 185.000000)">
                <g id="location_nav_close_btn">
                    <path d="M9.99363094,8.93297077 L15.2969318,3.62966991 C15.589825,3.3367767 16.0646988,3.3367767 16.357592,3.62966991 C16.6504852,3.92256313 16.6504852,4.39743687 16.357592,4.69033009 L11.0542911,9.99363094 L16.357592,15.2969318 C16.6504852,15.589825 16.6504852,16.0646988 16.357592,16.357592 C16.0646988,16.6504852 15.589825,16.6504852 15.2969318,16.357592 L9.99363094,11.0542911 L4.69033009,16.357592 C4.39743687,16.6504852 3.92256313,16.6504852 3.62966991,16.357592 C3.3367767,16.0646988 3.3367767,15.589825 3.62966991,15.2969318 L8.93297077,9.99363094 L3.62966991,4.69033009 C3.3367767,4.39743687 3.3367767,3.92256313 3.62966991,3.62966991 C3.92256313,3.3367767 4.39743687,3.3367767 4.69033009,3.62966991 L9.99363094,8.93297077 Z" id="合并形状"></path>
                </g>
            </g>
        </g>
    </g>
</svg>