<?xml version="1.0" encoding="UTF-8"?>
<svg width="18px" height="20px" viewBox="0 0 18 20" version="1.1" xmlns="http://www.w3.org/2000/svg" xmlns:xlink="http://www.w3.org/1999/xlink">
    <!-- Generator: Sketch 54 (76480) - https://sketchapp.com -->
    <title>加载</title>
    <desc>Created with Sketch.</desc>
    <g id="页面1" stroke="none" stroke-width="1" fill="none" fill-rule="evenodd">
        <g id="下拉" transform="translate(-294.000000, -78.000000)" fill-rule="nonzero">
            <g id="加载" transform="translate(294.000000, 78.000000)">
                <rect id="矩形" fill="#000000" opacity="0" x="2" y="2" width="16" height="16"></rect>
                <path d="M9.49142171,4.99299311 C8.128292,4.99299311 7.01890505,3.87310346 7.01890503,2.49666206 C7.01890503,1.12055173 8.128292,0 9.49142171,0 C10.8545514,0 11.9632827,1.11988965 11.9632827,2.49666206 C11.9632827,3.87310344 10.8545514,4.99299309 9.49142171,4.99299311 Z M4.2280625,6.97555862 C2.98295267,6.97555862 1.96962079,5.95266206 1.96962081,4.69473103 C1.96962083,3.4368 2.98295269,2.41390344 4.2280625,2.41390344 C5.47476608,2.41554552 6.48491211,3.43585232 6.48617637,4.69473103 C6.48617637,5.952 5.47317233,6.97555862 4.2280625,6.97555862 L4.2280625,6.97555862 Z M1.99125778,12.134731 C0.891582256,12.1336354 0.000542062691,11.2334493 0,10.1230345 C0.00108429293,9.01300746 0.891965918,8.11342591 1.99125778,8.11233103 C3.09042162,8.11360833 3.98110376,9.01313654 3.98218774,10.1230345 C3.98146517,11.233191 3.09067736,12.1331221 1.99125778,12.1344 L1.99125778,12.134731 Z M4.2280625,17.2459034 C3.29575848,17.2448086 2.54029789,16.4818224 2.53939459,15.5404138 C2.54065827,14.5993389 3.29576128,13.8367139 4.22773467,13.8352552 C5.15983608,13.8365316 5.91513846,14.5992099 5.91640257,15.5404138 C5.91640257,16.4805517 5.15910829,17.2459034 4.2280625,17.2459034 L4.2280625,17.2459034 Z M9.49142171,19.2 C8.67696407,19.1992699 8.0168961,18.5327561 8.0161731,17.7103448 C8.0161731,16.8887172 8.67806798,16.2206897 9.49142171,16.2206897 C10.3057513,16.2216022 10.9656198,16.8880627 10.9663425,17.7103448 C10.9663425,18.5319724 10.3047754,19.2 9.49109386,19.2 L9.49142171,19.2 Z M14.8344443,16.6821517 C14.1771442,16.681422 13.6444775,16.1435535 13.6437548,15.4798345 C13.6444775,14.8161155 14.1771442,14.278247 14.8344443,14.2775172 C15.4917444,14.278247 16.0244112,14.8161155 16.0251339,15.4798345 C16.0244112,16.1435534 15.4917444,16.681422 14.8344443,16.6821517 L14.8344443,16.6821517 Z M17.0227298,11.1191172 C16.4834789,11.1183878 16.0465097,10.6771514 16.0457874,10.1326345 C16.0463291,9.58798825 16.4833511,9.1465505 17.0227298,9.14582068 C17.5620339,9.14654967 17.9990971,9.58773294 18,10.1323034 C17.9990976,10.6769278 17.562087,11.118206 17.0227298,11.1191172 L17.0227298,11.1191172 Z M14.0764944,4.76855173 C14.0764358,5.04204471 14.2208774,5.29479419 14.4554093,5.43159189 C14.6899413,5.56838959 14.9789327,5.56845268 15.2135232,5.4317574 C15.4481138,5.29506212 15.5926636,5.04237574 15.5927221,4.76888276 C15.5927221,4.34609927 15.253303,4.00336552 14.8346082,4.00336552 C14.4159135,4.00336552 14.0764944,4.34609927 14.0764944,4.76888276 L14.0764944,4.76855173 Z" id="形状" fill="#29AD9F"></path>
            </g>
        </g>
    </g>
</svg>